<svg id="Layer_5" fill="#000000" enable-background="new 0 0 64 64" width="41.081" height="39.626"  viewBox="0 0 64 64"
     xmlns="http://www.w3.org/2000/svg" xmlns:xlink="http://www.w3.org/1999/xlink">
    <linearGradient  fill="#000000"  id="SVGID_1_" gradientUnits="userSpaceOnUse" x1="32" x2="32" y1="62.618" y2="1.382">
        <stop offset="0" stop-color="#9f2fff"/><stop offset="1" stop-color="#0bb1d3"/>
    </linearGradient>
    <path d="m49 14.618v-2.618h-27v-2h29v1.382l6.764-3.382-6.764-3.382v1.382h-21v-2h19v-2.618l13.236 6.618zm-23-10.618v2h2v-2zm-4 0v2h2v-2zm14 45.382-13.236 6.618 13.236 6.618v-2.618h19v-2h-21v1.382l-6.764-3.382 6.764-3.382v1.382h29v-2h-27zm23 8.618h-2v2h2zm2 2h2v-2h-2zm-4-18h2v-2h-2zm-8 0h2v-2h-2zm4 0h2v-2h-2zm-4-4h10v-2h-10zm14-15v20c0 1.654-1.346 3-3 3h-23.819c-3.813 4.452-9.313 7-15.181 7-11.028 0-20-8.972-20-20s8.972-20 20-20c5.868 0 11.368 2.548 15.181 7h6.819 10 7c1.654 0 3 1.346 3 3zm-18-1v4h6v-4zm-20.018-6.557c1.167 1.609 2.089 3.904 2.754 6.557h5.448c.186-.521.509-.97.93-1.314-2.48-2.644-5.653-4.457-9.132-5.243zm8.018 18.557h-4.011c-.054 2.729-.327 5.475-.811 8h4.822zm-7.326 10h-9.349c1.184 4.363 2.984 7 4.674 7s3.492-2.637 4.675-7zm.478-2c.474-2.326.772-5.029.829-8h-11.962c.057 2.971.356 5.674.829 8zm-20.716 0h8.386c-.484-2.525-.757-5.271-.811-8h-9.96c.16 2.903 1.004 5.622 2.385 8zm10.89-20h9.349c-1.184-4.363-2.984-7-4.674-7s-3.492 2.637-4.675 7zm-.478 2c-.474 2.326-.772 5.029-.829 8h11.963c-.057-2.971-.356-5.674-.829-8zm-2.026 0h-8.387c-1.381 2.378-2.224 5.097-2.385 8h9.96c.055-2.729.328-5.475.812-8zm19.178 0h-4.822c.484 2.525.757 5.271.811 8h4.011zm-26.216-2h7.48c.662-2.643 1.58-4.93 2.74-6.538-4.126.941-7.708 3.299-10.22 6.538zm10.22 28.537c-1.16-1.608-2.078-3.895-2.74-6.537h-7.48c2.512 3.239 6.094 5.597 10.22 6.537zm17.11-5.223c-.42-.343-.744-.793-.93-1.314h-5.448c-.665 2.654-1.587 4.948-2.754 6.557 3.479-.786 6.652-2.599 9.132-5.243zm26.886-22.314c0-.551-.449-1-1-1h-7v6h-10v-6h-7c-.551 0-1 .449-1 1v20c0 .552.449 1 1 1h24c.551 0 1-.448 1-1zm-44 15h2v-2h-2zm4-2v2h2v-2zm4-8h-2v2h2zm-4 2v-2h-2v2z" fill="#ffffff"/>
</svg>